<mxfile host="app.diagrams.net" modified="2020-10-13T13:18:05.964Z" agent="5.0 (Macintosh; Intel Mac OS X 10_15_6) AppleWebKit/537.36 (KHTML, like Gecko) Chrome/85.0.4183.102 Safari/537.36" etag="cJ9La4Mhe8ojR3ibunkB" version="13.6.9" type="github">
  <diagram id="uE7bclIqSYMbXd6oh5-1" name="Page-1">
    <mxGraphModel dx="1106" dy="591" grid="1" gridSize="10" guides="1" tooltips="1" connect="1" arrows="1" fold="1" page="1" pageScale="1" pageWidth="1169" pageHeight="827" math="0" shadow="0">
      <root>
        <mxCell id="0" />
        <mxCell id="1" parent="0" />
        <mxCell id="AXqBBAvNe02jhTyraDyd-7" style="edgeStyle=orthogonalEdgeStyle;rounded=0;orthogonalLoop=1;jettySize=auto;html=1;exitX=0.5;exitY=1;exitDx=0;exitDy=0;entryX=0.5;entryY=0;entryDx=0;entryDy=0;" edge="1" parent="1" source="AXqBBAvNe02jhTyraDyd-1" target="AXqBBAvNe02jhTyraDyd-3">
          <mxGeometry relative="1" as="geometry" />
        </mxCell>
        <mxCell id="AXqBBAvNe02jhTyraDyd-17" style="edgeStyle=orthogonalEdgeStyle;rounded=0;orthogonalLoop=1;jettySize=auto;html=1;exitX=1;exitY=0.5;exitDx=0;exitDy=0;entryX=0.5;entryY=0;entryDx=0;entryDy=0;" edge="1" parent="1" source="AXqBBAvNe02jhTyraDyd-1" target="AXqBBAvNe02jhTyraDyd-5">
          <mxGeometry relative="1" as="geometry" />
        </mxCell>
        <mxCell id="AXqBBAvNe02jhTyraDyd-1" value="ADP" style="rounded=0;whiteSpace=wrap;html=1;" vertex="1" parent="1">
          <mxGeometry x="80" y="80" width="120" height="60" as="geometry" />
        </mxCell>
        <mxCell id="AXqBBAvNe02jhTyraDyd-9" style="edgeStyle=orthogonalEdgeStyle;rounded=0;orthogonalLoop=1;jettySize=auto;html=1;exitX=0.5;exitY=1;exitDx=0;exitDy=0;entryX=0.5;entryY=0;entryDx=0;entryDy=0;" edge="1" parent="1" source="AXqBBAvNe02jhTyraDyd-3" target="AXqBBAvNe02jhTyraDyd-4">
          <mxGeometry relative="1" as="geometry" />
        </mxCell>
        <mxCell id="AXqBBAvNe02jhTyraDyd-10" style="edgeStyle=orthogonalEdgeStyle;rounded=0;orthogonalLoop=1;jettySize=auto;html=1;exitX=1;exitY=0.5;exitDx=0;exitDy=0;" edge="1" parent="1" source="AXqBBAvNe02jhTyraDyd-3">
          <mxGeometry relative="1" as="geometry">
            <mxPoint x="340" y="320" as="targetPoint" />
          </mxGeometry>
        </mxCell>
        <mxCell id="AXqBBAvNe02jhTyraDyd-3" value="MKT API" style="rounded=0;whiteSpace=wrap;html=1;" vertex="1" parent="1">
          <mxGeometry x="80" y="200" width="120" height="60" as="geometry" />
        </mxCell>
        <mxCell id="AXqBBAvNe02jhTyraDyd-4" value="Delivery" style="rounded=0;whiteSpace=wrap;html=1;" vertex="1" parent="1">
          <mxGeometry x="80" y="320" width="120" height="60" as="geometry" />
        </mxCell>
        <mxCell id="AXqBBAvNe02jhTyraDyd-5" value="ADS" style="rounded=0;whiteSpace=wrap;html=1;" vertex="1" parent="1">
          <mxGeometry x="280" y="320" width="120" height="60" as="geometry" />
        </mxCell>
        <mxCell id="AXqBBAvNe02jhTyraDyd-11" value="450/452 规格" style="text;html=1;strokeColor=none;fillColor=none;align=center;verticalAlign=middle;whiteSpace=wrap;rounded=0;" vertex="1" parent="1">
          <mxGeometry x="60" y="160" width="80" height="20" as="geometry" />
        </mxCell>
        <mxCell id="AXqBBAvNe02jhTyraDyd-12" value="450/452 规格" style="text;html=1;strokeColor=none;fillColor=none;align=center;verticalAlign=middle;whiteSpace=wrap;rounded=0;" vertex="1" parent="1">
          <mxGeometry x="60" y="280" width="80" height="20" as="geometry" />
        </mxCell>
        <mxCell id="AXqBBAvNe02jhTyraDyd-14" value="其他规格" style="text;html=1;strokeColor=none;fillColor=none;align=center;verticalAlign=middle;whiteSpace=wrap;rounded=0;" vertex="1" parent="1">
          <mxGeometry x="220" y="210" width="120" height="20" as="geometry" />
        </mxCell>
        <mxCell id="AXqBBAvNe02jhTyraDyd-18" value="其他规格" style="text;html=1;strokeColor=none;fillColor=none;align=center;verticalAlign=middle;whiteSpace=wrap;rounded=0;" vertex="1" parent="1">
          <mxGeometry x="220" y="90" width="120" height="20" as="geometry" />
        </mxCell>
        <mxCell id="AXqBBAvNe02jhTyraDyd-22" value="白名单用户--创建/更新" style="text;html=1;strokeColor=none;fillColor=none;align=center;verticalAlign=middle;whiteSpace=wrap;rounded=0;" vertex="1" parent="1">
          <mxGeometry x="170" y="40" width="130" height="20" as="geometry" />
        </mxCell>
        <mxCell id="AXqBBAvNe02jhTyraDyd-23" style="edgeStyle=orthogonalEdgeStyle;rounded=0;orthogonalLoop=1;jettySize=auto;html=1;exitX=0.5;exitY=1;exitDx=0;exitDy=0;entryX=0.5;entryY=0;entryDx=0;entryDy=0;" edge="1" source="AXqBBAvNe02jhTyraDyd-25" target="AXqBBAvNe02jhTyraDyd-28" parent="1">
          <mxGeometry relative="1" as="geometry" />
        </mxCell>
        <mxCell id="AXqBBAvNe02jhTyraDyd-25" value="ADP" style="rounded=0;whiteSpace=wrap;html=1;" vertex="1" parent="1">
          <mxGeometry x="480" y="80" width="120" height="60" as="geometry" />
        </mxCell>
        <mxCell id="AXqBBAvNe02jhTyraDyd-26" style="edgeStyle=orthogonalEdgeStyle;rounded=0;orthogonalLoop=1;jettySize=auto;html=1;exitX=0.5;exitY=1;exitDx=0;exitDy=0;entryX=0.5;entryY=0;entryDx=0;entryDy=0;" edge="1" source="AXqBBAvNe02jhTyraDyd-28" target="AXqBBAvNe02jhTyraDyd-29" parent="1">
          <mxGeometry relative="1" as="geometry" />
        </mxCell>
        <mxCell id="AXqBBAvNe02jhTyraDyd-28" value="MKT API" style="rounded=0;whiteSpace=wrap;html=1;" vertex="1" parent="1">
          <mxGeometry x="480" y="200" width="120" height="60" as="geometry" />
        </mxCell>
        <mxCell id="AXqBBAvNe02jhTyraDyd-29" value="Delivery" style="rounded=0;whiteSpace=wrap;html=1;" vertex="1" parent="1">
          <mxGeometry x="480" y="320" width="120" height="60" as="geometry" />
        </mxCell>
        <mxCell id="AXqBBAvNe02jhTyraDyd-31" value="全部规格" style="text;html=1;strokeColor=none;fillColor=none;align=center;verticalAlign=middle;whiteSpace=wrap;rounded=0;" vertex="1" parent="1">
          <mxGeometry x="460" y="160" width="80" height="20" as="geometry" />
        </mxCell>
        <mxCell id="AXqBBAvNe02jhTyraDyd-32" value="全部规格" style="text;html=1;strokeColor=none;fillColor=none;align=center;verticalAlign=middle;whiteSpace=wrap;rounded=0;" vertex="1" parent="1">
          <mxGeometry x="460" y="280" width="80" height="20" as="geometry" />
        </mxCell>
        <mxCell id="AXqBBAvNe02jhTyraDyd-35" value="白名单用户--查询" style="text;html=1;strokeColor=none;fillColor=none;align=center;verticalAlign=middle;whiteSpace=wrap;rounded=0;" vertex="1" parent="1">
          <mxGeometry x="470" y="40" width="130" height="20" as="geometry" />
        </mxCell>
        <mxCell id="AXqBBAvNe02jhTyraDyd-39" style="edgeStyle=orthogonalEdgeStyle;rounded=0;orthogonalLoop=1;jettySize=auto;html=1;exitX=0.5;exitY=1;exitDx=0;exitDy=0;entryX=0.5;entryY=0;entryDx=0;entryDy=0;" edge="1" parent="1" source="AXqBBAvNe02jhTyraDyd-36" target="AXqBBAvNe02jhTyraDyd-38">
          <mxGeometry relative="1" as="geometry" />
        </mxCell>
        <mxCell id="AXqBBAvNe02jhTyraDyd-36" value="ADP" style="rounded=0;whiteSpace=wrap;html=1;" vertex="1" parent="1">
          <mxGeometry x="680" y="80" width="120" height="60" as="geometry" />
        </mxCell>
        <mxCell id="AXqBBAvNe02jhTyraDyd-40" style="edgeStyle=orthogonalEdgeStyle;rounded=0;orthogonalLoop=1;jettySize=auto;html=1;exitX=0.5;exitY=1;exitDx=0;exitDy=0;entryX=0.5;entryY=0;entryDx=0;entryDy=0;" edge="1" parent="1" source="AXqBBAvNe02jhTyraDyd-37" target="AXqBBAvNe02jhTyraDyd-38">
          <mxGeometry relative="1" as="geometry" />
        </mxCell>
        <mxCell id="AXqBBAvNe02jhTyraDyd-37" value="MKT API" style="rounded=0;whiteSpace=wrap;html=1;" vertex="1" parent="1">
          <mxGeometry x="880" y="80" width="120" height="60" as="geometry" />
        </mxCell>
        <mxCell id="AXqBBAvNe02jhTyraDyd-38" value="ADS" style="rounded=0;whiteSpace=wrap;html=1;" vertex="1" parent="1">
          <mxGeometry x="780" y="320" width="120" height="60" as="geometry" />
        </mxCell>
        <mxCell id="AXqBBAvNe02jhTyraDyd-41" value="非白名单用户" style="text;html=1;strokeColor=none;fillColor=none;align=center;verticalAlign=middle;whiteSpace=wrap;rounded=0;" vertex="1" parent="1">
          <mxGeometry x="790" y="40" width="100" height="20" as="geometry" />
        </mxCell>
      </root>
    </mxGraphModel>
  </diagram>
</mxfile>
